<svg display="none" xmlns="http://www.w3.org/2000/svg">

    <symbol id="mark" width="15" height="20" viewBox="0 0 15 20" xmlns="http://www.w3.org/2000/svg">
        <path d="M7.5 0C5.51157 0.00219681 3.60522 0.775519 2.19918 2.15031C0.793144 3.5251 0.00224673 5.38909 0 7.33333C0 14.2409 6.78522 19.6283 7.0742 19.8542C7.19512 19.9486 7.34526 20 7.49999 20C7.65473 20 7.80487 19.9486 7.92579 19.8542C8.21478 19.6283 15 14.2409 15 7.33333C14.9978 5.38909 14.2069 3.5251 12.8008 2.15031C11.3948 0.775519 9.48843 0.00219681 7.5 0V0ZM7.5 10C6.9606 10 6.43331 9.8436 5.98481 9.55059C5.53631 9.25757 5.18675 8.84109 4.98033 8.35382C4.77391 7.86655 4.7199 7.33038 4.82513 6.81309C4.93036 6.29581 5.19011 5.82066 5.57153 5.44772C5.95294 5.07478 6.4389 4.8208 6.96794 4.71791C7.49697 4.61501 8.04534 4.66782 8.54368 4.86965C9.04203 5.07149 9.46797 5.41328 9.76764 5.85181C10.0673 6.29034 10.2273 6.80592 10.2273 7.33333C10.2273 8.04057 9.93992 8.71884 9.42846 9.21894C8.917 9.71903 8.22331 9.99999 7.5 10Z"/>
    </symbol>

    <symbol id="arrow-up" viewBox="0 0 11 7" fill="none" xmlns="http://www.w3.org/2000/svg">
        <rect x="6.60004" y="1.10001" width="7.77822" height="1.55564" transform="rotate(135 6.60004 1.10001)"
              fill="#C4C4C4"/>
        <rect x="5.5" y="7.62939e-05" width="7.77822" height="1.55564" transform="rotate(45 5.5 7.62939e-05)"
              fill="#C4C4C4"/>
    </symbol>

    <symbol id="arrow-left" viewBox="0 0 13 12" xmlns="http://www.w3.org/2000/svg">
        <path d="M12.5303 6.53033C12.8232 6.23744 12.8232 5.76256 12.5303 5.46967L7.75736 0.696699C7.46447 0.403806 6.98959 0.403806 6.6967 0.696699C6.40381 0.989593 6.40381 1.46447 6.6967 1.75736L10.9393 6L6.6967 10.2426C6.40381 10.5355 6.40381 11.0104 6.6967 11.3033C6.98959 11.5962 7.46447 11.5962 7.75736 11.3033L12.5303 6.53033ZM0 6.75H12V5.25H0V6.75Z"/>
    </symbol>
</svg>

